<?xml version="1.0" encoding="UTF-8" standalone="no"?><!DOCTYPE svg PUBLIC "-//W3C//DTD SVG 1.1//EN" "http://www.w3.org/Graphics/SVG/1.1/DTD/svg11.dtd"><svg width="100%" height="100%" viewBox="0 0 30 30" version="1.1" xmlns="http://www.w3.org/2000/svg" xmlns:xlink="http://www.w3.org/1999/xlink" xml:space="preserve" xmlns:serif="http://www.serif.com/" style="fill-rule:evenodd;clip-rule:evenodd;stroke-linejoin:round;stroke-miterlimit:2;"><g><g><clipPath id="_clip1"><rect x="0" y="4.802" width="24.921" height="24.814"/></clipPath><g clip-path="url(#_clip1)"><path d="M24.887,29.734l-24.887,0l0,-24.908l24.887,-0l0,24.908Zm-24.49,-0.397l24.093,-0l0,-24.114l-24.093,0l0,24.114Z" style="fill-rule:nonzero;"/></g></g><path d="M27.137,27.217l-24.886,-0l0,-24.909l24.886,-0l0,24.909Zm-24.49,-0.398l24.093,0l0,-24.113l-24.093,-0l0,24.113Z" style="fill-rule:nonzero;"/><g><clipPath id="_clip2"><rect x="4.441" y="0.096" width="25.079" height="24.866"/></clipPath><g clip-path="url(#_clip2)"><path d="M29.52,24.912l-24.886,-0l-0,-24.91l24.886,-0l-0,24.91Zm-24.489,-0.398l24.093,0l-0,-24.115l-24.093,0l0,24.115Z" style="fill-rule:nonzero;"/></g></g><g><rect x="7.982" y="16.223" width="5.504" height="5.505" style="fill-rule:nonzero;"/></g></g></svg>